<?xml version="1.0" standalone="no"?><!DOCTYPE svg PUBLIC "-//W3C//DTD SVG 1.1//EN" "http://www.w3.org/Graphics/SVG/1.1/DTD/svg11.dtd"><svg xmlns:xlink="http://www.w3.org/1999/xlink" version="1.1" style="font-family:open sans;font-size:12px;" xmlns="http://www.w3.org/2000/svg" width="1040" height="410"><desc>Created with Highcharts 4.1.5</desc><defs><clipPath id="highcharts-80"><rect x="0" y="0" width="818" height="193"></rect></clipPath></defs><rect x="0" y="0" width="1040" height="410" strokeWidth="0" fill="#FFFFFF" class=" highcharts-background"></rect><g class="highcharts-grid" ></g><g class="highcharts-grid" ></g><g class="highcharts-grid" ></g><g class="highcharts-grid" ><path fill="none" d="M 104 331.5 L 922 331.5" stroke="#D8D8D8" stroke-width="1"  opacity="1"></path><path fill="none" d="M 104 235.5 L 922 235.5" stroke="#D8D8D8" stroke-width="1"  opacity="1"></path><path fill="none" d="M 104 137.5 L 922 137.5" stroke="#D8D8D8" stroke-width="1"  opacity="1"></path></g><g class="highcharts-axis" ><path fill="none" d="M 171.5 331 L 171.5 341" stroke="#C0D0E0" stroke-width="1" opacity="1"></path><path fill="none" d="M 239.5 331 L 239.5 341" stroke="#C0D0E0" stroke-width="1" opacity="1"></path><path fill="none" d="M 308.5 331 L 308.5 341" stroke="#C0D0E0" stroke-width="1" opacity="1"></path><path fill="none" d="M 376.5 331 L 376.5 341" stroke="#C0D0E0" stroke-width="1" opacity="1"></path><path fill="none" d="M 444.5 331 L 444.5 341" stroke="#C0D0E0" stroke-width="1" opacity="1"></path><path fill="none" d="M 512.5 331 L 512.5 341" stroke="#C0D0E0" stroke-width="1" opacity="1"></path><path fill="none" d="M 580.5 331 L 580.5 341" stroke="#C0D0E0" stroke-width="1" opacity="1"></path><path fill="none" d="M 648.5 331 L 648.5 341" stroke="#C0D0E0" stroke-width="1" opacity="1"></path><path fill="none" d="M 717.5 331 L 717.5 341" stroke="#C0D0E0" stroke-width="1" opacity="1"></path><path fill="none" d="M 785.5 331 L 785.5 341" stroke="#C0D0E0" stroke-width="1" opacity="1"></path><path fill="none" d="M 853.5 331 L 853.5 341" stroke="#C0D0E0" stroke-width="1" opacity="1"></path><path fill="none" d="M 921.5 331 L 921.5 341" stroke="#C0D0E0" stroke-width="1" opacity="1"></path><path fill="none" d="M 103.5 331 L 103.5 341" stroke="#C0D0E0" stroke-width="1" opacity="1"></path><path fill="none" d="M 104 331.5 L 922 331.5" stroke="#C0D0E0" stroke-width="1"  visibility="visible"></path></g><g class="highcharts-axis" ><path fill="none" d="M 171.5 138 L 171.5 128" stroke="#C0D0E0" stroke-width="1" opacity="1"></path><path fill="none" d="M 239.5 138 L 239.5 128" stroke="#C0D0E0" stroke-width="1" opacity="1"></path><path fill="none" d="M 308.5 138 L 308.5 128" stroke="#C0D0E0" stroke-width="1" opacity="1"></path><path fill="none" d="M 376.5 138 L 376.5 128" stroke="#C0D0E0" stroke-width="1" opacity="1"></path><path fill="none" d="M 444.5 138 L 444.5 128" stroke="#C0D0E0" stroke-width="1" opacity="1"></path><path fill="none" d="M 512.5 138 L 512.5 128" stroke="#C0D0E0" stroke-width="1" opacity="1"></path><path fill="none" d="M 580.5 138 L 580.5 128" stroke="#C0D0E0" stroke-width="1" opacity="1"></path><path fill="none" d="M 648.5 138 L 648.5 128" stroke="#C0D0E0" stroke-width="1" opacity="1"></path><path fill="none" d="M 717.5 138 L 717.5 128" stroke="#C0D0E0" stroke-width="1" opacity="1"></path><path fill="none" d="M 785.5 138 L 785.5 128" stroke="#C0D0E0" stroke-width="1" opacity="1"></path><path fill="none" d="M 853.5 138 L 853.5 128" stroke="#C0D0E0" stroke-width="1" opacity="1"></path><path fill="none" d="M 921.5 138 L 921.5 128" stroke="#C0D0E0" stroke-width="1" opacity="1"></path><path fill="none" d="M 103.5 138 L 103.5 128" stroke="#C0D0E0" stroke-width="1" opacity="1"></path><path fill="none" d="M 104 137.5 L 922 137.5" stroke="#C0D0E0" stroke-width="1"  visibility="visible"></path></g><g class="highcharts-axis" ><text x="1012.6666641235352"  text-anchor="middle" transform="translate(0,0) rotate(90 1012.6666641235352 234.5)" class=" highcharts-yaxis-title" style="color:#000000;fill:#000000;" visibility="visible" y="234.5"><tspan>Kentucky marriages</tspan></text></g><g class="highcharts-axis" ><text x="26.63333511352539"  text-anchor="middle" transform="translate(0,0) rotate(270 26.63333511352539 234.5)" class=" highcharts-yaxis-title" style="color:#ba0f27;fill:#ba0f27;" visibility="visible" y="234.5"><tspan>Fishing boat deaths</tspan></text></g><g class="highcharts-series-group" ><g class="highcharts-series" visibility="visible"  transform="translate(104,138) scale(1 1)" clip-path="url(#highcharts-80)"><path fill="none" d="M 34.083333333333336 4.824999999999989 C 34.083333333333336 4.824999999999989 74.98333333333333 39.564999999999976 102.25 57.89999999999998 C 129.51666666666668 76.23499999999999 143.15 96.5 170.41666666666669 96.5 C 197.68333333333334 96.5 211.3166666666667 96.5 238.58333333333334 96.5 C 265.85 96.5 279.48333333333335 91.67500000000001 306.75 91.67500000000001 C 334.0166666666667 91.67500000000001 347.65 102.28999999999995 374.9166666666667 106.14999999999996 C 402.1833333333333 110.00999999999996 415.8166666666667 107.11500000000004 443.0833333333333 110.97500000000004 C 470.35 114.83500000000005 483.9833333333333 116.76499999999997 511.25 125.44999999999999 C 538.5166666666667 134.13499999999996 552.15 154.4 579.4166666666667 154.4 C 606.6833333333334 154.4 620.3166666666667 149.575 647.5833333333334 149.575 C 674.85 149.575 688.4833333333333 159.225 715.7500000000001 164.05 C 743.0166666666668 168.875 783.9166666666667 173.7 783.9166666666667 173.7" stroke="#000000" stroke-width="2"  stroke-linejoin="round" stroke-linecap="round"></path></g><g class="highcharts-markers" visibility="visible"  transform="translate(104,138) scale(1 1)" clip-path="none"><path fill="#000000" d="M 783 169.7 C 788.328 169.7 788.328 177.7 783 177.7 C 777.672 177.7 777.672 169.7 783 169.7 Z"></path><path fill="#000000" d="M 715 160.05 C 720.328 160.05 720.328 168.05 715 168.05 C 709.672 168.05 709.672 160.05 715 160.05 Z"></path><path fill="#000000" d="M 647 145.575 C 652.328 145.575 652.328 153.575 647 153.575 C 641.672 153.575 641.672 145.575 647 145.575 Z"></path><path fill="#000000" d="M 579 150.4 C 584.328 150.4 584.328 158.4 579 158.4 C 573.672 158.4 573.672 150.4 579 150.4 Z"></path><path fill="#000000" d="M 511 121.44999999999999 C 516.328 121.44999999999999 516.328 129.45 511 129.45 C 505.672 129.45 505.672 121.44999999999999 511 121.44999999999999 Z"></path><path fill="#000000" d="M 443 106.97500000000004 C 448.328 106.97500000000004 448.328 114.97500000000004 443 114.97500000000004 C 437.672 114.97500000000004 437.672 106.97500000000004 443 106.97500000000004 Z"></path><path fill="#000000" d="M 374 102.14999999999996 C 379.328 102.14999999999996 379.328 110.14999999999996 374 110.14999999999996 C 368.672 110.14999999999996 368.672 102.14999999999996 374 102.14999999999996 Z"></path><path fill="#000000" d="M 306 87.67500000000001 C 311.328 87.67500000000001 311.328 95.67500000000001 306 95.67500000000001 C 300.672 95.67500000000001 300.672 87.67500000000001 306 87.67500000000001 Z"></path><path fill="#000000" d="M 238 92.5 C 243.328 92.5 243.328 100.5 238 100.5 C 232.672 100.5 232.672 92.5 238 92.5 Z"></path><path fill="#000000" d="M 170 92.5 C 175.328 92.5 175.328 100.5 170 100.5 C 164.672 100.5 164.672 92.5 170 92.5 Z"></path><path fill="#000000" d="M 102 53.89999999999998 C 107.328 53.89999999999998 107.328 61.89999999999998 102 61.89999999999998 C 96.672 61.89999999999998 96.672 53.89999999999998 102 53.89999999999998 Z"></path><path fill="#000000" d="M 34 0.8249999999999886 C 39.328 0.8249999999999886 39.328 8.824999999999989 34 8.824999999999989 C 28.672 8.824999999999989 28.672 0.8249999999999886 34 0.8249999999999886 Z"></path></g><g class="highcharts-series" visibility="visible"  transform="translate(104,138) scale(1 1)" clip-path="url(#highcharts-80)"><path fill="none" d="M 34.083333333333336 9.650000000000006 C 34.083333333333336 9.650000000000006 74.98333333333333 19.300000000000008 102.25 38.599999999999994 C 129.51666666666668 57.9 143.15 106.14999999999999 170.41666666666669 106.14999999999999 C 197.68333333333334 106.14999999999999 211.3166666666667 88.77999999999999 238.58333333333334 77.19999999999999 C 265.85 65.61999999999998 279.48333333333335 48.25 306.75 48.25 C 334.0166666666667 48.25 347.65 96.5 374.9166666666667 96.5 C 402.1833333333333 96.5 415.8166666666667 86.85 443.0833333333333 86.85 C 470.35 86.85 483.9833333333333 108.07999999999998 511.25 125.45 C 538.5166666666667 142.82 552.15 173.7 579.4166666666667 173.7 C 606.6833333333334 173.7 620.3166666666667 144.75 647.5833333333334 144.75 C 674.85 144.75 688.4833333333333 183.35 715.7500000000001 183.35 C 743.0166666666668 183.35 783.9166666666667 183.35 783.9166666666667 183.35" stroke="#ba0f27" stroke-width="2"  stroke-linejoin="round" stroke-linecap="round"></path></g><g class="highcharts-markers" visibility="visible"  transform="translate(104,138) scale(1 1)" clip-path="none"><path fill="#ba0f27" d="M 783 179.35 L 787 183.35 783 187.35 779 183.35 Z"></path><path fill="#ba0f27" d="M 715 179.35 L 719 183.35 715 187.35 711 183.35 Z"></path><path fill="#ba0f27" d="M 647 140.75 L 651 144.75 647 148.75 643 144.75 Z"></path><path fill="#ba0f27" d="M 579 169.7 L 583 173.7 579 177.7 575 173.7 Z"></path><path fill="#ba0f27" d="M 511 121.45 L 515 125.45 511 129.45 507 125.45 Z"></path><path fill="#ba0f27" d="M 443 82.85 L 447 86.85 443 90.85 439 86.85 Z"></path><path fill="#ba0f27" d="M 374 92.5 L 378 96.5 374 100.5 370 96.5 Z"></path><path fill="#ba0f27" d="M 306 44.25 L 310 48.25 306 52.25 302 48.25 Z"></path><path fill="#ba0f27" d="M 238 73.19999999999999 L 242 77.19999999999999 238 81.19999999999999 234 77.19999999999999 Z"></path><path fill="#ba0f27" d="M 170 102.14999999999999 L 174 106.14999999999999 170 110.14999999999999 166 106.14999999999999 Z"></path><path fill="#ba0f27" d="M 102 34.599999999999994 L 106 38.599999999999994 102 42.599999999999994 98 38.599999999999994 Z"></path><path fill="#ba0f27" d="M 34 5.650000000000006 L 38 9.650000000000006 34 13.650000000000006 30 9.650000000000006 Z"></path></g></g><text x="520" text-anchor="middle" class="highcharts-title"  style="color:#777;font-size:18px;fill:#777;width:976px;" y="24"><tspan style="fill:#ba0f27;font-size:24px;font-weight:bold;font-family: 'lora'">People who drowned after falling out of a fishing boat</tspan><tspan style="font-family: 'lora'" x="520" dy="21"> correlates with </tspan><tspan style="fill:#000000;font-size:24px;font-weight:bold;font-family: 'lora'" x="520" dy="29">Marriage rate in Kentucky</tspan></text><g class="highcharts-legend"  transform="translate(365,367)"><g ><g><g class="highcharts-legend-item"  transform="translate(8,3)"><path fill="none" d="M 0 11 L 16 11" stroke="#000000" stroke-width="2"></path><path fill="#000000" d="M 8 7 C 13.328 7 13.328 15 8 15 C 2.6719999999999997 15 2.6719999999999997 7 8 7 Z"></path><text x="21" style="color:#333333;font-size:12px;font-weight:bold;cursor:pointer;fill:#333333;" text-anchor="start"  y="15"><tspan>Kentucky marriages</tspan></text></g><g class="highcharts-legend-item"  transform="translate(166.43333435058594,3)"><path fill="none" d="M 0 11 L 16 11" stroke="#ba0f27" stroke-width="2"></path><path fill="#ba0f27" d="M 8 7 L 12 11 8 15 4 11 Z"></path><text x="21" y="15" style="color:#333333;font-size:12px;font-weight:bold;cursor:pointer;fill:#333333;" text-anchor="start" ><tspan>Fishing boat deaths</tspan></text></g></g></g></g><g class="highcharts-axis-labels highcharts-xaxis-labels" ><text x="138.08333333333334" style="color:#000000;cursor:default;font-size:11px;fill:#000000;width:68.16666666666667;text-overflow:ellipsis;" text-anchor="middle" transform="translate(0,0)" y="350" opacity="1"><tspan>1999</tspan></text><text x="206.25" style="color:#000000;cursor:default;font-size:11px;fill:#000000;width:68.16666666666667;text-overflow:ellipsis;" text-anchor="middle" transform="translate(0,0)" y="350" opacity="1"><tspan>2000</tspan></text><text x="274.4166666666667" style="color:#000000;cursor:default;font-size:11px;fill:#000000;width:68.16666666666667;text-overflow:ellipsis;" text-anchor="middle" transform="translate(0,0)" y="350" opacity="1"><tspan>2001</tspan></text><text x="342.58333333333337" style="color:#000000;cursor:default;font-size:11px;fill:#000000;width:68.16666666666667;text-overflow:ellipsis;" text-anchor="middle" transform="translate(0,0)" y="350" opacity="1"><tspan>2002</tspan></text><text x="410.75" style="color:#000000;cursor:default;font-size:11px;fill:#000000;width:68.16666666666667;text-overflow:ellipsis;" text-anchor="middle" transform="translate(0,0)" y="350" opacity="1"><tspan>2003</tspan></text><text x="478.9166666666667" style="color:#000000;cursor:default;font-size:11px;fill:#000000;width:68.16666666666667;text-overflow:ellipsis;" text-anchor="middle" transform="translate(0,0)" y="350" opacity="1"><tspan>2004</tspan></text><text x="547.0833333333334" style="color:#000000;cursor:default;font-size:11px;fill:#000000;width:68.16666666666667;text-overflow:ellipsis;" text-anchor="middle" transform="translate(0,0)" y="350" opacity="1"><tspan>2005</tspan></text><text x="615.25" style="color:#000000;cursor:default;font-size:11px;fill:#000000;width:68.16666666666667;text-overflow:ellipsis;" text-anchor="middle" transform="translate(0,0)" y="350" opacity="1"><tspan>2006</tspan></text><text x="683.4166666666667" style="color:#000000;cursor:default;font-size:11px;fill:#000000;width:68.16666666666667;text-overflow:ellipsis;" text-anchor="middle" transform="translate(0,0)" y="350" opacity="1"><tspan>2007</tspan></text><text x="751.5833333333334" style="color:#000000;cursor:default;font-size:11px;fill:#000000;width:68.16666666666667;text-overflow:ellipsis;" text-anchor="middle" transform="translate(0,0)" y="350" opacity="1"><tspan>2008</tspan></text><text x="819.75" style="color:#000000;cursor:default;font-size:11px;fill:#000000;width:68.16666666666667;text-overflow:ellipsis;" text-anchor="middle" transform="translate(0,0)" y="350" opacity="1"><tspan>2009</tspan></text><text x="887.9166666666667" style="color:#000000;cursor:default;font-size:11px;fill:#000000;width:68.16666666666667;text-overflow:ellipsis;" text-anchor="middle" transform="translate(0,0)" y="350" opacity="1"><tspan>2010</tspan></text></g><g class="highcharts-axis-labels highcharts-xaxis-labels" ><text x="138.08333333333334" style="color:#ba0f27;cursor:default;font-size:11px;fill:#ba0f27;width:68.16666666666667;text-overflow:ellipsis;" text-anchor="middle" transform="translate(0,0)" y="123" opacity="1"><tspan>1999</tspan></text><text x="206.25" style="color:#ba0f27;cursor:default;font-size:11px;fill:#ba0f27;width:68.16666666666667;text-overflow:ellipsis;" text-anchor="middle" transform="translate(0,0)" y="123" opacity="1"><tspan>2000</tspan></text><text x="274.4166666666667" style="color:#ba0f27;cursor:default;font-size:11px;fill:#ba0f27;width:68.16666666666667;text-overflow:ellipsis;" text-anchor="middle" transform="translate(0,0)" y="123" opacity="1"><tspan>2001</tspan></text><text x="342.58333333333337" style="color:#ba0f27;cursor:default;font-size:11px;fill:#ba0f27;width:68.16666666666667;text-overflow:ellipsis;" text-anchor="middle" transform="translate(0,0)" y="123" opacity="1"><tspan>2002</tspan></text><text x="410.75" style="color:#ba0f27;cursor:default;font-size:11px;fill:#ba0f27;width:68.16666666666667;text-overflow:ellipsis;" text-anchor="middle" transform="translate(0,0)" y="123" opacity="1"><tspan>2003</tspan></text><text x="478.9166666666667" style="color:#ba0f27;cursor:default;font-size:11px;fill:#ba0f27;width:68.16666666666667;text-overflow:ellipsis;" text-anchor="middle" transform="translate(0,0)" y="123" opacity="1"><tspan>2004</tspan></text><text x="547.0833333333334" style="color:#ba0f27;cursor:default;font-size:11px;fill:#ba0f27;width:68.16666666666667;text-overflow:ellipsis;" text-anchor="middle" transform="translate(0,0)" y="123" opacity="1"><tspan>2005</tspan></text><text x="615.25" style="color:#ba0f27;cursor:default;font-size:11px;fill:#ba0f27;width:68.16666666666667;text-overflow:ellipsis;" text-anchor="middle" transform="translate(0,0)" y="123" opacity="1"><tspan>2006</tspan></text><text x="683.4166666666667" style="color:#ba0f27;cursor:default;font-size:11px;fill:#ba0f27;width:68.16666666666667;text-overflow:ellipsis;" text-anchor="middle" transform="translate(0,0)" y="123" opacity="1"><tspan>2007</tspan></text><text x="751.5833333333334" style="color:#ba0f27;cursor:default;font-size:11px;fill:#ba0f27;width:68.16666666666667;text-overflow:ellipsis;" text-anchor="middle" transform="translate(0,0)" y="123" opacity="1"><tspan>2008</tspan></text><text x="819.75" style="color:#ba0f27;cursor:default;font-size:11px;fill:#ba0f27;width:68.16666666666667;text-overflow:ellipsis;" text-anchor="middle" transform="translate(0,0)" y="123" opacity="1"><tspan>2009</tspan></text><text x="887.9166666666667" style="color:#ba0f27;cursor:default;font-size:11px;fill:#ba0f27;width:68.16666666666667;text-overflow:ellipsis;" text-anchor="middle" transform="translate(0,0)" y="123" opacity="1"><tspan>2010</tspan></text></g><g class="highcharts-axis-labels highcharts-yaxis-labels" ><text x="937" style="color:#000000;cursor:default;font-size:11px;fill:#000000;width:333px;text-overflow:clip;" text-anchor="start" transform="translate(0,0)" y="334" opacity="1"><tspan>7  per 1,000</tspan></text><text x="937" style="color:#000000;cursor:default;font-size:11px;fill:#000000;width:333px;text-overflow:clip;" text-anchor="start" transform="translate(0,0)" y="286" opacity="1"><tspan>8  per 1,000</tspan></text><text x="937" style="color:#000000;cursor:default;font-size:11px;fill:#000000;width:333px;text-overflow:clip;" text-anchor="start" transform="translate(0,0)" y="238" opacity="1"><tspan>9  per 1,000</tspan></text><text x="937" style="color:#000000;cursor:default;font-size:11px;fill:#000000;width:333px;text-overflow:clip;" text-anchor="start" transform="translate(0,0)" y="189" opacity="1"><tspan>10  per 1,000</tspan></text><text x="937" style="color:#000000;cursor:default;font-size:11px;fill:#000000;width:333px;text-overflow:clip;" text-anchor="start" transform="translate(0,0)" y="141" opacity="1"><tspan>11  per 1,000</tspan></text></g><g class="highcharts-axis-labels highcharts-yaxis-labels" ><text x="89" style="color:#ba0f27;cursor:default;font-size:11px;fill:#ba0f27;width:333px;text-overflow:clip;" text-anchor="end" transform="translate(0,0)" y="334" opacity="1"><tspan>0 deaths</tspan></text><text x="89" style="color:#ba0f27;cursor:default;font-size:11px;fill:#ba0f27;width:333px;text-overflow:clip;" text-anchor="end" transform="translate(0,0)" y="238" opacity="1"><tspan>10 deaths</tspan></text><text x="89" style="color:#ba0f27;cursor:default;font-size:11px;fill:#ba0f27;width:333px;text-overflow:clip;" text-anchor="end" transform="translate(0,0)" y="141" opacity="1"><tspan>20 deaths</tspan></text></g><g class="highcharts-tooltip"  style="cursor:default;padding:0;white-space:nowrap;" transform="translate(0,-9999)"><path fill="none" d="M 3 0 L 13 0 C 16 0 16 0 16 3 L 16 13 C 16 16 16 16 13 16 L 3 16 C 0 16 0 16 0 13 L 0 3 C 0 0 0 0 3 0"  stroke="black" stroke-opacity="0.049999999999999996" stroke-width="5" transform="translate(1, 1)"></path><path fill="none" d="M 3 0 L 13 0 C 16 0 16 0 16 3 L 16 13 C 16 16 16 16 13 16 L 3 16 C 0 16 0 16 0 13 L 0 3 C 0 0 0 0 3 0"  stroke="black" stroke-opacity="0.09999999999999999" stroke-width="3" transform="translate(1, 1)"></path><path fill="none" d="M 3 0 L 13 0 C 16 0 16 0 16 3 L 16 13 C 16 16 16 16 13 16 L 3 16 C 0 16 0 16 0 13 L 0 3 C 0 0 0 0 3 0"  stroke="black" stroke-opacity="0.15" stroke-width="1" transform="translate(1, 1)"></path><path fill="rgb(249, 249, 249)" fill-opacity=" .85" d="M 3 0 L 13 0 C 16 0 16 0 16 3 L 16 13 C 16 16 16 16 13 16 L 3 16 C 0 16 0 16 0 13 L 0 3 C 0 0 0 0 3 0"></path><text x="8"  style="font-size:12px;color:#333333;fill:#333333;" transform="translate(0,20)"></text></g><text x="1030" text-anchor="end"  style="cursor:pointer;color:#909090;font-size:9px;fill:#909090;" y="405">tylervigen.com</text></svg>