<?xml version="1.0" standalone="no"?><!DOCTYPE svg PUBLIC "-//W3C//DTD SVG 1.1//EN" "http://www.w3.org/Graphics/SVG/1.1/DTD/svg11.dtd"><svg xmlns:xlink="http://www.w3.org/1999/xlink" version="1.1" style="font-family:open sans;font-size:12px;" xmlns="http://www.w3.org/2000/svg" width="1040" height="410"><desc>Created with Highcharts 4.1.5</desc><defs><clipPath id="highcharts-74"><rect x="0" y="0" width="838" height="193"></rect></clipPath></defs><rect x="0" y="0" width="1040" height="410" strokeWidth="0" fill="#FFFFFF" class=" highcharts-background"></rect><g class="highcharts-grid" ></g><g class="highcharts-grid" ></g><g class="highcharts-grid" ></g><g class="highcharts-grid" ><path fill="none" d="M 91 331.5 L 929 331.5" stroke="#D8D8D8" stroke-width="1"  opacity="1"></path><path fill="none" d="M 91 278.5 L 929 278.5" stroke="#D8D8D8" stroke-width="1"  opacity="1"></path><path fill="none" d="M 91 226.5 L 929 226.5" stroke="#D8D8D8" stroke-width="1"  opacity="1"></path><path fill="none" d="M 91 173.5 L 929 173.5" stroke="#D8D8D8" stroke-width="1"  opacity="1"></path></g><g class="highcharts-axis" ><path fill="none" d="M 174.5 331 L 174.5 341" stroke="#C0D0E0" stroke-width="1" opacity="1"></path><path fill="none" d="M 258.5 331 L 258.5 341" stroke="#C0D0E0" stroke-width="1" opacity="1"></path><path fill="none" d="M 341.5 331 L 341.5 341" stroke="#C0D0E0" stroke-width="1" opacity="1"></path><path fill="none" d="M 425.5 331 L 425.5 341" stroke="#C0D0E0" stroke-width="1" opacity="1"></path><path fill="none" d="M 509.5 331 L 509.5 341" stroke="#C0D0E0" stroke-width="1" opacity="1"></path><path fill="none" d="M 593.5 331 L 593.5 341" stroke="#C0D0E0" stroke-width="1" opacity="1"></path><path fill="none" d="M 677.5 331 L 677.5 341" stroke="#C0D0E0" stroke-width="1" opacity="1"></path><path fill="none" d="M 760.5 331 L 760.5 341" stroke="#C0D0E0" stroke-width="1" opacity="1"></path><path fill="none" d="M 844.5 331 L 844.5 341" stroke="#C0D0E0" stroke-width="1" opacity="1"></path><path fill="none" d="M 929.5 331 L 929.5 341" stroke="#C0D0E0" stroke-width="1" opacity="1"></path><path fill="none" d="M 90.5 331 L 90.5 341" stroke="#C0D0E0" stroke-width="1" opacity="1"></path><path fill="none" d="M 91 331.5 L 929 331.5" stroke="#C0D0E0" stroke-width="1"  visibility="visible"></path></g><g class="highcharts-axis" ><path fill="none" d="M 174.5 138 L 174.5 128" stroke="#C0D0E0" stroke-width="1" opacity="1"></path><path fill="none" d="M 258.5 138 L 258.5 128" stroke="#C0D0E0" stroke-width="1" opacity="1"></path><path fill="none" d="M 341.5 138 L 341.5 128" stroke="#C0D0E0" stroke-width="1" opacity="1"></path><path fill="none" d="M 425.5 138 L 425.5 128" stroke="#C0D0E0" stroke-width="1" opacity="1"></path><path fill="none" d="M 509.5 138 L 509.5 128" stroke="#C0D0E0" stroke-width="1" opacity="1"></path><path fill="none" d="M 593.5 138 L 593.5 128" stroke="#C0D0E0" stroke-width="1" opacity="1"></path><path fill="none" d="M 677.5 138 L 677.5 128" stroke="#C0D0E0" stroke-width="1" opacity="1"></path><path fill="none" d="M 760.5 138 L 760.5 128" stroke="#C0D0E0" stroke-width="1" opacity="1"></path><path fill="none" d="M 844.5 138 L 844.5 128" stroke="#C0D0E0" stroke-width="1" opacity="1"></path><path fill="none" d="M 929.5 138 L 929.5 128" stroke="#C0D0E0" stroke-width="1" opacity="1"></path><path fill="none" d="M 90.5 138 L 90.5 128" stroke="#C0D0E0" stroke-width="1" opacity="1"></path><path fill="none" d="M 91 137.5 L 929 137.5" stroke="#C0D0E0" stroke-width="1"  visibility="visible"></path></g><g class="highcharts-axis" ><text x="1012.6500015258789"  text-anchor="middle" transform="translate(0,0) rotate(90 1012.6500015258789 234.5)" class=" highcharts-yaxis-title" style="color:#000000;fill:#000000;" visibility="visible" y="234.5"><tspan>Bedsheet tanglings</tspan></text></g><g class="highcharts-axis" ><text x="27.5"  text-anchor="middle" transform="translate(0,0) rotate(270 27.5 234.5)" class=" highcharts-yaxis-title" style="color:#ba0f27;fill:#ba0f27;" visibility="visible" y="234.5"><tspan>Cheese consumed</tspan></text></g><g class="highcharts-series-group" ><g class="highcharts-series" visibility="visible"  transform="translate(91,138) scale(1 1)" clip-path="url(#highcharts-74)"><path fill="none" d="M 41.9 157.9842857142857 C 41.9 157.9842857142857 92.17999999999999 132.45314285714284 125.69999999999999 122.41714285714286 C 159.21999999999997 112.38114285714288 175.98 107.80428571428573 209.5 107.80428571428573 C 243.01999999999998 107.80428571428573 259.78 111.11285714285715 293.29999999999995 111.11285714285715 C 326.82 111.11285714285715 343.58 83.81714285714287 377.09999999999997 83.81714285714287 C 410.62 83.81714285714287 427.37999999999994 90.15857142857143 460.9 90.15857142857143 C 494.4199999999999 90.15857142857143 511.17999999999995 75.15971428571427 544.6999999999999 65.89571428571429 C 578.22 56.631714285714274 594.9799999999999 51.99971428571431 628.5 43.83857142857144 C 662.02 35.67742857142859 678.78 25.090000000000003 712.3 25.090000000000003 C 745.8199999999999 25.090000000000003 796.0999999999999 50.45571428571429 796.0999999999999 50.45571428571429" stroke="#000000" stroke-width="2"  stroke-linejoin="round" stroke-linecap="round"></path></g><g class="highcharts-markers" visibility="visible"  transform="translate(91,138) scale(1 1)" clip-path="none"><path fill="#000000" d="M 796 46.45571428571429 C 801.328 46.45571428571429 801.328 54.45571428571429 796 54.45571428571429 C 790.672 54.45571428571429 790.672 46.45571428571429 796 46.45571428571429 Z"></path><path fill="#000000" d="M 712 21.090000000000003 C 717.328 21.090000000000003 717.328 29.090000000000003 712 29.090000000000003 C 706.672 29.090000000000003 706.672 21.090000000000003 712 21.090000000000003 Z"></path><path fill="#000000" d="M 628 39.83857142857144 C 633.328 39.83857142857144 633.328 47.83857142857144 628 47.83857142857144 C 622.672 47.83857142857144 622.672 39.83857142857144 628 39.83857142857144 Z"></path><path fill="#000000" d="M 544 61.89571428571429 C 549.328 61.89571428571429 549.328 69.89571428571429 544 69.89571428571429 C 538.672 69.89571428571429 538.672 61.89571428571429 544 61.89571428571429 Z"></path><path fill="#000000" d="M 460 86.15857142857143 C 465.328 86.15857142857143 465.328 94.15857142857143 460 94.15857142857143 C 454.672 94.15857142857143 454.672 86.15857142857143 460 86.15857142857143 Z"></path><path fill="#000000" d="M 377 79.81714285714287 C 382.328 79.81714285714287 382.328 87.81714285714287 377 87.81714285714287 C 371.672 87.81714285714287 371.672 79.81714285714287 377 79.81714285714287 Z"></path><path fill="#000000" d="M 293 107.11285714285715 C 298.328 107.11285714285715 298.328 115.11285714285715 293 115.11285714285715 C 287.672 115.11285714285715 287.672 107.11285714285715 293 107.11285714285715 Z"></path><path fill="#000000" d="M 209 103.80428571428573 C 214.328 103.80428571428573 214.328 111.80428571428573 209 111.80428571428573 C 203.672 111.80428571428573 203.672 103.80428571428573 209 103.80428571428573 Z"></path><path fill="#000000" d="M 125 118.41714285714286 C 130.328 118.41714285714286 130.328 126.41714285714286 125 126.41714285714286 C 119.672 126.41714285714286 119.672 118.41714285714286 125 118.41714285714286 Z"></path><path fill="#000000" d="M 41 153.9842857142857 C 46.328 153.9842857142857 46.328 161.9842857142857 41 161.9842857142857 C 35.672 161.9842857142857 35.672 153.9842857142857 41 153.9842857142857 Z"></path></g><g class="highcharts-series" visibility="visible"  transform="translate(91,138) scale(1 1)" clip-path="url(#highcharts-74)"><path fill="none" d="M 41.9 147.38181818181815 C 41.9 147.38181818181815 92.17999999999999 141.7672727272727 125.69999999999999 136.85454545454542 C 159.21999999999997 131.94181818181815 175.98 126.32727272727271 209.5 122.81818181818181 C 243.01999999999998 119.30909090909091 259.78 122.81818181818181 293.29999999999995 119.30909090909086 C 326.82 115.7999999999999 343.58 102.46545454545449 377.09999999999997 94.7454545454545 C 410.62 87.02545454545452 427.37999999999994 89.83272727272733 460.9 80.70909090909093 C 494.4199999999999 71.58545454545458 511.17999999999995 58.952727272727216 544.6999999999999 49.12727272727267 C 578.22 39.30181818181809 594.9799999999999 31.581818181818107 628.5 31.581818181818107 C 662.02 31.581818181818107 678.78 45.61818181818171 712.3 45.61818181818171 C 745.8199999999999 45.61818181818171 796.0999999999999 42.10909090909101 796.0999999999999 42.10909090909101" stroke="#ba0f27" stroke-width="2"  stroke-linejoin="round" stroke-linecap="round"></path></g><g class="highcharts-markers" visibility="visible"  transform="translate(91,138) scale(1 1)" clip-path="none"><path fill="#ba0f27" d="M 796 38.10909090909101 L 800 42.10909090909101 796 46.10909090909101 792 42.10909090909101 Z"></path><path fill="#ba0f27" d="M 712 41.61818181818171 L 716 45.61818181818171 712 49.61818181818171 708 45.61818181818171 Z"></path><path fill="#ba0f27" d="M 628 27.581818181818107 L 632 31.581818181818107 628 35.58181818181811 624 31.581818181818107 Z"></path><path fill="#ba0f27" d="M 544 45.12727272727267 L 548 49.12727272727267 544 53.12727272727267 540 49.12727272727267 Z"></path><path fill="#ba0f27" d="M 460 76.70909090909093 L 464 80.70909090909093 460 84.70909090909093 456 80.70909090909093 Z"></path><path fill="#ba0f27" d="M 377 90.7454545454545 L 381 94.7454545454545 377 98.7454545454545 373 94.7454545454545 Z"></path><path fill="#ba0f27" d="M 293 115.30909090909086 L 297 119.30909090909086 293 123.30909090909086 289 119.30909090909086 Z"></path><path fill="#ba0f27" d="M 209 118.81818181818181 L 213 122.81818181818181 209 126.81818181818181 205 122.81818181818181 Z"></path><path fill="#ba0f27" d="M 125 132.85454545454542 L 129 136.85454545454542 125 140.85454545454542 121 136.85454545454542 Z"></path><path fill="#ba0f27" d="M 41 143.38181818181815 L 45 147.38181818181815 41 151.38181818181815 37 147.38181818181815 Z"></path></g></g><text x="520" text-anchor="middle" class="highcharts-title"  style="color:#777;font-size:18px;fill:#777;width:976px;" y="24"><tspan style="fill:#ba0f27;font-size:24px;font-weight:bold;font-family: 'lora'">Per capita cheese consumption</tspan><tspan style="font-family: 'lora'" x="520" dy="21"> correlates with </tspan><tspan style="fill:#000000;font-size:24px;font-weight:bold;font-family: 'lora'" x="520" dy="29">Number of people who died by becoming tangled in their bedsheets</tspan></text><g class="highcharts-legend"  transform="translate(371,367)"><g ><g><g class="highcharts-legend-item"  transform="translate(8,3)"><path fill="none" d="M 0 11 L 16 11" stroke="#000000" stroke-width="2"></path><path fill="#000000" d="M 8 7 C 13.328 7 13.328 15 8 15 C 2.6719999999999997 15 2.6719999999999997 7 8 7 Z"></path><text x="21" style="color:#333333;font-size:12px;font-weight:bold;cursor:pointer;fill:#333333;" text-anchor="start"  y="15"><tspan>Bedsheet tanglings</tspan></text></g><g class="highcharts-legend-item"  transform="translate(161.26667022705078,3)"><path fill="none" d="M 0 11 L 16 11" stroke="#ba0f27" stroke-width="2"></path><path fill="#ba0f27" d="M 8 7 L 12 11 8 15 4 11 Z"></path><text x="21" y="15" style="color:#333333;font-size:12px;font-weight:bold;cursor:pointer;fill:#333333;" text-anchor="start" ><tspan>Cheese consumed</tspan></text></g></g></g></g><g class="highcharts-axis-labels highcharts-xaxis-labels" ><text x="132.9" style="color:#000000;cursor:default;font-size:11px;fill:#000000;width:73px;text-overflow:clip;" text-anchor="middle" transform="translate(0,0)" y="350" opacity="1">2000</text><text x="216.70000000000002" style="color:#000000;cursor:default;font-size:11px;fill:#000000;width:73px;text-overflow:clip;" text-anchor="middle" transform="translate(0,0)" y="350" opacity="1">2001</text><text x="300.5" style="color:#000000;cursor:default;font-size:11px;fill:#000000;width:73px;text-overflow:clip;" text-anchor="middle" transform="translate(0,0)" y="350" opacity="1">2002</text><text x="384.3" style="color:#000000;cursor:default;font-size:11px;fill:#000000;width:73px;text-overflow:clip;" text-anchor="middle" transform="translate(0,0)" y="350" opacity="1">2003</text><text x="468.09999999999997" style="color:#000000;cursor:default;font-size:11px;fill:#000000;width:73px;text-overflow:clip;" text-anchor="middle" transform="translate(0,0)" y="350" opacity="1">2004</text><text x="551.9" style="color:#000000;cursor:default;font-size:11px;fill:#000000;width:73px;text-overflow:clip;" text-anchor="middle" transform="translate(0,0)" y="350" opacity="1">2005</text><text x="635.6999999999999" style="color:#000000;cursor:default;font-size:11px;fill:#000000;width:73px;text-overflow:clip;" text-anchor="middle" transform="translate(0,0)" y="350" opacity="1">2006</text><text x="719.5" style="color:#000000;cursor:default;font-size:11px;fill:#000000;width:73px;text-overflow:clip;" text-anchor="middle" transform="translate(0,0)" y="350" opacity="1">2007</text><text x="803.3" style="color:#000000;cursor:default;font-size:11px;fill:#000000;width:73px;text-overflow:clip;" text-anchor="middle" transform="translate(0,0)" y="350" opacity="1">2008</text><text x="887.1" style="color:#000000;cursor:default;font-size:11px;fill:#000000;width:73px;text-overflow:clip;" text-anchor="middle" transform="translate(0,0)" y="350" opacity="1">2009</text></g><g class="highcharts-axis-labels highcharts-xaxis-labels" ><text x="132.9" style="color:#ba0f27;cursor:default;font-size:11px;fill:#ba0f27;width:73px;text-overflow:clip;" text-anchor="middle" transform="translate(0,0)" y="123" opacity="1">2000</text><text x="216.70000000000002" style="color:#ba0f27;cursor:default;font-size:11px;fill:#ba0f27;width:73px;text-overflow:clip;" text-anchor="middle" transform="translate(0,0)" y="123" opacity="1">2001</text><text x="300.5" style="color:#ba0f27;cursor:default;font-size:11px;fill:#ba0f27;width:73px;text-overflow:clip;" text-anchor="middle" transform="translate(0,0)" y="123" opacity="1">2002</text><text x="384.3" style="color:#ba0f27;cursor:default;font-size:11px;fill:#ba0f27;width:73px;text-overflow:clip;" text-anchor="middle" transform="translate(0,0)" y="123" opacity="1">2003</text><text x="468.09999999999997" style="color:#ba0f27;cursor:default;font-size:11px;fill:#ba0f27;width:73px;text-overflow:clip;" text-anchor="middle" transform="translate(0,0)" y="123" opacity="1">2004</text><text x="551.9" style="color:#ba0f27;cursor:default;font-size:11px;fill:#ba0f27;width:73px;text-overflow:clip;" text-anchor="middle" transform="translate(0,0)" y="123" opacity="1">2005</text><text x="635.6999999999999" style="color:#ba0f27;cursor:default;font-size:11px;fill:#ba0f27;width:73px;text-overflow:clip;" text-anchor="middle" transform="translate(0,0)" y="123" opacity="1">2006</text><text x="719.5" style="color:#ba0f27;cursor:default;font-size:11px;fill:#ba0f27;width:73px;text-overflow:clip;" text-anchor="middle" transform="translate(0,0)" y="123" opacity="1">2007</text><text x="803.3" style="color:#ba0f27;cursor:default;font-size:11px;fill:#ba0f27;width:73px;text-overflow:clip;" text-anchor="middle" transform="translate(0,0)" y="123" opacity="1">2008</text><text x="887.1" style="color:#ba0f27;cursor:default;font-size:11px;fill:#ba0f27;width:73px;text-overflow:clip;" text-anchor="middle" transform="translate(0,0)" y="123" opacity="1">2009</text></g><g class="highcharts-axis-labels highcharts-yaxis-labels" ><text x="944" style="color:#000000;cursor:default;font-size:11px;fill:#000000;width:333px;text-overflow:clip;" text-anchor="start" transform="translate(0,0)" y="334" opacity="1"><tspan>200 deaths</tspan></text><text x="944" style="color:#000000;cursor:default;font-size:11px;fill:#000000;width:333px;text-overflow:clip;" text-anchor="start" transform="translate(0,0)" y="279" opacity="1"><tspan>400 deaths</tspan></text><text x="944" style="color:#000000;cursor:default;font-size:11px;fill:#000000;width:333px;text-overflow:clip;" text-anchor="start" transform="translate(0,0)" y="224" opacity="1"><tspan>600 deaths</tspan></text><text x="944" style="color:#000000;cursor:default;font-size:11px;fill:#000000;width:333px;text-overflow:clip;" text-anchor="start" transform="translate(0,0)" y="169" opacity="1"><tspan>800 deaths</tspan></text></g><g class="highcharts-axis-labels highcharts-yaxis-labels" ><text x="76" style="color:#ba0f27;cursor:default;font-size:11px;fill:#ba0f27;width:333px;text-overflow:clip;" text-anchor="end" transform="translate(0,0)" y="334" opacity="1">28.5lbs</text><text x="76" style="color:#ba0f27;cursor:default;font-size:11px;fill:#ba0f27;width:333px;text-overflow:clip;" text-anchor="end" transform="translate(0,0)" y="281" opacity="1">30lbs</text><text x="76" style="color:#ba0f27;cursor:default;font-size:11px;fill:#ba0f27;width:333px;text-overflow:clip;" text-anchor="end" transform="translate(0,0)" y="229" opacity="1">31.5lbs</text><text x="76" style="color:#ba0f27;cursor:default;font-size:11px;fill:#ba0f27;width:333px;text-overflow:clip;" text-anchor="end" transform="translate(0,0)" y="176" opacity="1">33lbs</text></g><g class="highcharts-tooltip"  style="cursor:default;padding:0;white-space:nowrap;" transform="translate(0,-9999)"><path fill="none" d="M 3 0 L 13 0 C 16 0 16 0 16 3 L 16 13 C 16 16 16 16 13 16 L 3 16 C 0 16 0 16 0 13 L 0 3 C 0 0 0 0 3 0"  stroke="black" stroke-opacity="0.049999999999999996" stroke-width="5" transform="translate(1, 1)"></path><path fill="none" d="M 3 0 L 13 0 C 16 0 16 0 16 3 L 16 13 C 16 16 16 16 13 16 L 3 16 C 0 16 0 16 0 13 L 0 3 C 0 0 0 0 3 0"  stroke="black" stroke-opacity="0.09999999999999999" stroke-width="3" transform="translate(1, 1)"></path><path fill="none" d="M 3 0 L 13 0 C 16 0 16 0 16 3 L 16 13 C 16 16 16 16 13 16 L 3 16 C 0 16 0 16 0 13 L 0 3 C 0 0 0 0 3 0"  stroke="black" stroke-opacity="0.15" stroke-width="1" transform="translate(1, 1)"></path><path fill="rgb(249, 249, 249)" fill-opacity=" .85" d="M 3 0 L 13 0 C 16 0 16 0 16 3 L 16 13 C 16 16 16 16 13 16 L 3 16 C 0 16 0 16 0 13 L 0 3 C 0 0 0 0 3 0"></path><text x="8"  style="font-size:12px;color:#333333;fill:#333333;" transform="translate(0,20)"></text></g><text x="1030" text-anchor="end"  style="cursor:pointer;color:#909090;font-size:9px;fill:#909090;" y="405">tylervigen.com</text></svg>