<?xml version="1.0" standalone="no"?><!DOCTYPE svg PUBLIC "-//W3C//DTD SVG 1.1//EN" "http://www.w3.org/Graphics/SVG/1.1/DTD/svg11.dtd"><svg xmlns:xlink="http://www.w3.org/1999/xlink" version="1.1" style="font-family:open sans;font-size:12px;" xmlns="http://www.w3.org/2000/svg" width="1040" height="410"><desc>Created with Highcharts 4.1.5</desc><defs><clipPath id="highcharts-86"><rect x="0" y="0" width="801" height="193"></rect></clipPath></defs><rect x="0" y="0" width="1040" height="410" strokeWidth="0" fill="#FFFFFF" class=" highcharts-background"></rect><g class="highcharts-grid" ></g><g class="highcharts-grid" ></g><g class="highcharts-grid" ><path fill="none" d="M 116 331.5 L 917 331.5" stroke="#D8D8D8" stroke-width="1"  opacity="1"></path><path fill="none" d="M 116 267.5 L 917 267.5" stroke="#D8D8D8" stroke-width="1"  opacity="1"></path><path fill="none" d="M 116 202.5 L 917 202.5" stroke="#D8D8D8" stroke-width="1"  opacity="1"></path><path fill="none" d="M 116 138.5 L 917 138.5" stroke="#D8D8D8" stroke-width="1"  opacity="1"></path></g><g class="highcharts-grid" ></g><g class="highcharts-axis" ><path fill="none" d="M 195.5 331 L 195.5 341" stroke="#C0D0E0" stroke-width="1" opacity="1"></path><path fill="none" d="M 275.5 331 L 275.5 341" stroke="#C0D0E0" stroke-width="1" opacity="1"></path><path fill="none" d="M 355.5 331 L 355.5 341" stroke="#C0D0E0" stroke-width="1" opacity="1"></path><path fill="none" d="M 435.5 331 L 435.5 341" stroke="#C0D0E0" stroke-width="1" opacity="1"></path><path fill="none" d="M 516.5 331 L 516.5 341" stroke="#C0D0E0" stroke-width="1" opacity="1"></path><path fill="none" d="M 596.5 331 L 596.5 341" stroke="#C0D0E0" stroke-width="1" opacity="1"></path><path fill="none" d="M 676.5 331 L 676.5 341" stroke="#C0D0E0" stroke-width="1" opacity="1"></path><path fill="none" d="M 756.5 331 L 756.5 341" stroke="#C0D0E0" stroke-width="1" opacity="1"></path><path fill="none" d="M 836.5 331 L 836.5 341" stroke="#C0D0E0" stroke-width="1" opacity="1"></path><path fill="none" d="M 916.5 331 L 916.5 341" stroke="#C0D0E0" stroke-width="1" opacity="1"></path><path fill="none" d="M 115.5 331 L 115.5 341" stroke="#C0D0E0" stroke-width="1" opacity="1"></path><path fill="none" d="M 116 331.5 L 917 331.5" stroke="#C0D0E0" stroke-width="1"  visibility="visible"></path></g><g class="highcharts-axis" ><path fill="none" d="M 195.5 138 L 195.5 128" stroke="#C0D0E0" stroke-width="1" opacity="1"></path><path fill="none" d="M 275.5 138 L 275.5 128" stroke="#C0D0E0" stroke-width="1" opacity="1"></path><path fill="none" d="M 355.5 138 L 355.5 128" stroke="#C0D0E0" stroke-width="1" opacity="1"></path><path fill="none" d="M 435.5 138 L 435.5 128" stroke="#C0D0E0" stroke-width="1" opacity="1"></path><path fill="none" d="M 516.5 138 L 516.5 128" stroke="#C0D0E0" stroke-width="1" opacity="1"></path><path fill="none" d="M 596.5 138 L 596.5 128" stroke="#C0D0E0" stroke-width="1" opacity="1"></path><path fill="none" d="M 676.5 138 L 676.5 128" stroke="#C0D0E0" stroke-width="1" opacity="1"></path><path fill="none" d="M 756.5 138 L 756.5 128" stroke="#C0D0E0" stroke-width="1" opacity="1"></path><path fill="none" d="M 836.5 138 L 836.5 128" stroke="#C0D0E0" stroke-width="1" opacity="1"></path><path fill="none" d="M 916.5 138 L 916.5 128" stroke="#C0D0E0" stroke-width="1" opacity="1"></path><path fill="none" d="M 115.5 138 L 115.5 128" stroke="#C0D0E0" stroke-width="1" opacity="1"></path><path fill="none" d="M 116 137.5 L 917 137.5" stroke="#C0D0E0" stroke-width="1"  visibility="visible"></path></g><g class="highcharts-axis" ><text x="1012.9833297729492"  text-anchor="middle" transform="translate(0,0) rotate(90 1012.9833297729492 234.5)" class=" highcharts-yaxis-title" style="color:#000000;fill:#000000;" visibility="visible" y="234.5"><tspan>Computer science doctorates</tspan></text></g><g class="highcharts-axis" ><text x="26.900001525878906"  text-anchor="middle" transform="translate(0,0) rotate(270 26.900001525878906 234.5)" class=" highcharts-yaxis-title" style="color:#ba0f27;fill:#ba0f27;" visibility="visible" y="234.5"><tspan>Arcade revenue</tspan></text></g><g class="highcharts-series-group" ><g class="highcharts-series" visibility="visible"  transform="translate(116,138) scale(1 1)" clip-path="url(#highcharts-86)"><path fill="none" d="M 40.05 146.55133333333333 C 40.05 146.55133333333333 88.10999999999999 149.20186666666666 120.14999999999999 150.54 C 152.19 151.87813333333332 168.20999999999998 153.242 200.25 153.242 C 232.28999999999996 153.242 248.31 149.35626666666667 280.34999999999997 145.77933333333334 C 312.39 142.2024 328.40999999999997 142.09946666666667 360.45 135.35733333333332 C 392.48999999999995 128.61519999999996 408.51000000000005 125.064 440.55 112.06866666666666 C 472.59 99.07333333333332 488.60999999999996 83.94213333333335 520.65 70.38066666666666 C 552.6899999999999 56.819199999999995 568.7099999999998 52.85626666666666 600.7499999999999 44.26133333333331 C 632.7899999999998 35.66639999999999 648.8099999999998 27.405999999999977 680.8499999999999 27.405999999999977 C 712.89 27.405999999999977 760.9499999999999 50.05133333333333 760.9499999999999 50.05133333333333" stroke="#000000" stroke-width="2"  stroke-linejoin="round" stroke-linecap="round"></path></g><g class="highcharts-markers" visibility="visible"  transform="translate(116,138) scale(1 1)" clip-path="none"><path fill="#000000" d="M 760 46.05133333333333 C 765.328 46.05133333333333 765.328 54.05133333333333 760 54.05133333333333 C 754.672 54.05133333333333 754.672 46.05133333333333 760 46.05133333333333 Z"></path><path fill="#000000" d="M 680 23.405999999999977 C 685.328 23.405999999999977 685.328 31.405999999999977 680 31.405999999999977 C 674.672 31.405999999999977 674.672 23.405999999999977 680 23.405999999999977 Z"></path><path fill="#000000" d="M 600 40.26133333333331 C 605.328 40.26133333333331 605.328 48.26133333333331 600 48.26133333333331 C 594.672 48.26133333333331 594.672 40.26133333333331 600 40.26133333333331 Z"></path><path fill="#000000" d="M 520 66.38066666666666 C 525.328 66.38066666666666 525.328 74.38066666666666 520 74.38066666666666 C 514.672 74.38066666666666 514.672 66.38066666666666 520 66.38066666666666 Z"></path><path fill="#000000" d="M 440 108.06866666666666 C 445.328 108.06866666666666 445.328 116.06866666666666 440 116.06866666666666 C 434.672 116.06866666666666 434.672 108.06866666666666 440 108.06866666666666 Z"></path><path fill="#000000" d="M 360 131.35733333333332 C 365.328 131.35733333333332 365.328 139.35733333333332 360 139.35733333333332 C 354.672 139.35733333333332 354.672 131.35733333333332 360 131.35733333333332 Z"></path><path fill="#000000" d="M 280 141.77933333333334 C 285.328 141.77933333333334 285.328 149.77933333333334 280 149.77933333333334 C 274.672 149.77933333333334 274.672 141.77933333333334 280 141.77933333333334 Z"></path><path fill="#000000" d="M 200 149.242 C 205.328 149.242 205.328 157.242 200 157.242 C 194.672 157.242 194.672 149.242 200 149.242 Z"></path><path fill="#000000" d="M 120 146.54 C 125.328 146.54 125.328 154.54 120 154.54 C 114.672 154.54 114.672 146.54 120 146.54 Z"></path><path fill="#000000" d="M 40 142.55133333333333 C 45.328 142.55133333333333 45.328 150.55133333333333 40 150.55133333333333 C 34.672 150.55133333333333 34.672 142.55133333333333 40 142.55133333333333 Z"></path></g><g class="highcharts-series" visibility="visible"  transform="translate(116,138) scale(1 1)" clip-path="url(#highcharts-86)"><path fill="none" d="M 40.05 155.17200000000003 C 40.05 155.17200000000003 88.10999999999999 159.032 120.14999999999999 159.032 C 152.19 159.032 168.20999999999998 141.08300000000003 200.25 141.08300000000003 C 232.28999999999996 141.08300000000003 248.31 146.68 280.34999999999997 146.68 C 312.39 146.68 328.40999999999997 141.276 360.45 133.74900000000002 C 392.48999999999995 126.22200000000002 408.51000000000005 120.3934 440.55 109.04499999999999 C 472.59 97.69659999999999 488.60999999999996 85.4604 520.65 77.007 C 552.6899999999999 68.55360000000002 568.7099999999998 74.57520000000002 600.7499999999999 66.77800000000002 C 632.7899999999998 58.98080000000003 648.8099999999998 38.021000000000015 680.8499999999999 38.021000000000015 C 712.89 38.021000000000015 760.9499999999999 51.337999999999994 760.9499999999999 51.337999999999994" stroke="#ba0f27" stroke-width="2"  stroke-linejoin="round" stroke-linecap="round"></path></g><g class="highcharts-markers" visibility="visible"  transform="translate(116,138) scale(1 1)" clip-path="none"><path fill="#ba0f27" d="M 760 47.337999999999994 L 764 51.337999999999994 760 55.337999999999994 756 51.337999999999994 Z"></path><path fill="#ba0f27" d="M 680 34.021000000000015 L 684 38.021000000000015 680 42.021000000000015 676 38.021000000000015 Z"></path><path fill="#ba0f27" d="M 600 62.77800000000002 L 604 66.77800000000002 600 70.77800000000002 596 66.77800000000002 Z"></path><path fill="#ba0f27" d="M 520 73.007 L 524 77.007 520 81.007 516 77.007 Z"></path><path fill="#ba0f27" d="M 440 105.04499999999999 L 444 109.04499999999999 440 113.04499999999999 436 109.04499999999999 Z"></path><path fill="#ba0f27" d="M 360 129.74900000000002 L 364 133.74900000000002 360 137.74900000000002 356 133.74900000000002 Z"></path><path fill="#ba0f27" d="M 280 142.68 L 284 146.68 280 150.68 276 146.68 Z"></path><path fill="#ba0f27" d="M 200 137.08300000000003 L 204 141.08300000000003 200 145.08300000000003 196 141.08300000000003 Z"></path><path fill="#ba0f27" d="M 120 155.032 L 124 159.032 120 163.032 116 159.032 Z"></path><path fill="#ba0f27" d="M 40 151.17200000000003 L 44 155.17200000000003 40 159.17200000000003 36 155.17200000000003 Z"></path></g></g><text x="520" text-anchor="middle" class="highcharts-title"  style="color:#777;font-size:18px;fill:#777;width:976px;" y="24"><tspan style="fill:#ba0f27;font-size:24px;font-weight:bold;font-family: 'lora'">Total revenue generated by arcades</tspan><tspan style="font-family: 'lora'" x="520" dy="21"> correlates with </tspan><tspan style="fill:#000000;font-size:24px;font-weight:bold;font-family: 'lora'" x="520" dy="29">Computer science doctorates awarded in the US</tspan></text><g class="highcharts-legend"  transform="translate(349,367)"><g ><g><g class="highcharts-legend-item"  transform="translate(8,3)"><path fill="none" d="M 0 11 L 16 11" stroke="#000000" stroke-width="2"></path><path fill="#000000" d="M 8 7 C 13.328 7 13.328 15 8 15 C 2.6719999999999997 15 2.6719999999999997 7 8 7 Z"></path><text x="21" style="color:#333333;font-size:12px;font-weight:bold;cursor:pointer;fill:#333333;" text-anchor="start"  y="15"><tspan>Computer science doctorates</tspan></text></g><g class="highcharts-legend-item"  transform="translate(220.60000610351562,3)"><path fill="none" d="M 0 11 L 16 11" stroke="#ba0f27" stroke-width="2"></path><path fill="#ba0f27" d="M 8 7 L 12 11 8 15 4 11 Z"></path><text x="21" y="15" style="color:#333333;font-size:12px;font-weight:bold;cursor:pointer;fill:#333333;" text-anchor="start" ><tspan>Arcade revenue</tspan></text></g></g></g></g><g class="highcharts-axis-labels highcharts-xaxis-labels" ><text x="156.05" style="color:#000000;cursor:default;font-size:11px;fill:#000000;width:70px;text-overflow:clip;" text-anchor="middle" transform="translate(0,0)" y="350" opacity="1">2000</text><text x="236.14999999999998" style="color:#000000;cursor:default;font-size:11px;fill:#000000;width:70px;text-overflow:clip;" text-anchor="middle" transform="translate(0,0)" y="350" opacity="1">2001</text><text x="316.25" style="color:#000000;cursor:default;font-size:11px;fill:#000000;width:70px;text-overflow:clip;" text-anchor="middle" transform="translate(0,0)" y="350" opacity="1">2002</text><text x="396.34999999999997" style="color:#000000;cursor:default;font-size:11px;fill:#000000;width:70px;text-overflow:clip;" text-anchor="middle" transform="translate(0,0)" y="350" opacity="1">2003</text><text x="476.45" style="color:#000000;cursor:default;font-size:11px;fill:#000000;width:70px;text-overflow:clip;" text-anchor="middle" transform="translate(0,0)" y="350" opacity="1">2004</text><text x="556.55" style="color:#000000;cursor:default;font-size:11px;fill:#000000;width:70px;text-overflow:clip;" text-anchor="middle" transform="translate(0,0)" y="350" opacity="1">2005</text><text x="636.65" style="color:#000000;cursor:default;font-size:11px;fill:#000000;width:70px;text-overflow:clip;" text-anchor="middle" transform="translate(0,0)" y="350" opacity="1">2006</text><text x="716.75" style="color:#000000;cursor:default;font-size:11px;fill:#000000;width:70px;text-overflow:clip;" text-anchor="middle" transform="translate(0,0)" y="350" opacity="1">2007</text><text x="796.8499999999999" style="color:#000000;cursor:default;font-size:11px;fill:#000000;width:70px;text-overflow:clip;" text-anchor="middle" transform="translate(0,0)" y="350" opacity="1">2008</text><text x="876.9499999999999" style="color:#000000;cursor:default;font-size:11px;fill:#000000;width:70px;text-overflow:clip;" text-anchor="middle" transform="translate(0,0)" y="350" opacity="1">2009</text></g><g class="highcharts-axis-labels highcharts-xaxis-labels" ><text x="156.05" style="color:#ba0f27;cursor:default;font-size:11px;fill:#ba0f27;width:70px;text-overflow:clip;" text-anchor="middle" transform="translate(0,0)" y="123" opacity="1">2000</text><text x="236.14999999999998" style="color:#ba0f27;cursor:default;font-size:11px;fill:#ba0f27;width:70px;text-overflow:clip;" text-anchor="middle" transform="translate(0,0)" y="123" opacity="1">2001</text><text x="316.25" style="color:#ba0f27;cursor:default;font-size:11px;fill:#ba0f27;width:70px;text-overflow:clip;" text-anchor="middle" transform="translate(0,0)" y="123" opacity="1">2002</text><text x="396.34999999999997" style="color:#ba0f27;cursor:default;font-size:11px;fill:#ba0f27;width:70px;text-overflow:clip;" text-anchor="middle" transform="translate(0,0)" y="123" opacity="1">2003</text><text x="476.45" style="color:#ba0f27;cursor:default;font-size:11px;fill:#ba0f27;width:70px;text-overflow:clip;" text-anchor="middle" transform="translate(0,0)" y="123" opacity="1">2004</text><text x="556.55" style="color:#ba0f27;cursor:default;font-size:11px;fill:#ba0f27;width:70px;text-overflow:clip;" text-anchor="middle" transform="translate(0,0)" y="123" opacity="1">2005</text><text x="636.65" style="color:#ba0f27;cursor:default;font-size:11px;fill:#ba0f27;width:70px;text-overflow:clip;" text-anchor="middle" transform="translate(0,0)" y="123" opacity="1">2006</text><text x="716.75" style="color:#ba0f27;cursor:default;font-size:11px;fill:#ba0f27;width:70px;text-overflow:clip;" text-anchor="middle" transform="translate(0,0)" y="123" opacity="1">2007</text><text x="796.8499999999999" style="color:#ba0f27;cursor:default;font-size:11px;fill:#ba0f27;width:70px;text-overflow:clip;" text-anchor="middle" transform="translate(0,0)" y="123" opacity="1">2008</text><text x="876.9499999999999" style="color:#ba0f27;cursor:default;font-size:11px;fill:#ba0f27;width:70px;text-overflow:clip;" text-anchor="middle" transform="translate(0,0)" y="123" opacity="1">2009</text></g><g class="highcharts-axis-labels highcharts-yaxis-labels" ><text x="932" style="color:#000000;cursor:default;font-size:11px;fill:#000000;width:333px;text-overflow:clip;" text-anchor="start" transform="translate(0,0)" y="334" opacity="1"><tspan>500 degrees</tspan></text><text x="932" style="color:#000000;cursor:default;font-size:11px;fill:#000000;width:333px;text-overflow:clip;" text-anchor="start" transform="translate(0,0)" y="270" opacity="1"><tspan>1000 degrees</tspan></text><text x="932" style="color:#000000;cursor:default;font-size:11px;fill:#000000;width:333px;text-overflow:clip;" text-anchor="start" transform="translate(0,0)" y="205" opacity="1"><tspan>1500 degrees</tspan></text><text x="932" style="color:#000000;cursor:default;font-size:11px;fill:#000000;width:333px;text-overflow:clip;" text-anchor="start" transform="translate(0,0)" y="141" opacity="1"><tspan>2000 degrees</tspan></text></g><g class="highcharts-axis-labels highcharts-yaxis-labels" ><text x="101" style="color:#ba0f27;cursor:default;font-size:11px;fill:#ba0f27;width:333px;text-overflow:clip;" text-anchor="end" transform="translate(0,0)" y="334" opacity="1"><tspan>$1 billion</tspan></text><text x="101" style="color:#ba0f27;cursor:default;font-size:11px;fill:#ba0f27;width:333px;text-overflow:clip;" text-anchor="end" transform="translate(0,0)" y="286" opacity="1"><tspan>$1.25 billion</tspan></text><text x="101" style="color:#ba0f27;cursor:default;font-size:11px;fill:#ba0f27;width:333px;text-overflow:clip;" text-anchor="end" transform="translate(0,0)" y="238" opacity="1"><tspan>$1.5 billion</tspan></text><text x="101" style="color:#ba0f27;cursor:default;font-size:11px;fill:#ba0f27;width:333px;text-overflow:clip;" text-anchor="end" transform="translate(0,0)" y="189" opacity="1"><tspan>$1.75 billion</tspan></text><text x="101" style="color:#ba0f27;cursor:default;font-size:11px;fill:#ba0f27;width:333px;text-overflow:clip;" text-anchor="end" transform="translate(0,0)" y="141" opacity="1"><tspan>$2 billion</tspan></text></g><g class="highcharts-tooltip"  style="cursor:default;padding:0;white-space:nowrap;" transform="translate(0,-9999)"><path fill="none" d="M 3 0 L 13 0 C 16 0 16 0 16 3 L 16 13 C 16 16 16 16 13 16 L 3 16 C 0 16 0 16 0 13 L 0 3 C 0 0 0 0 3 0"  stroke="black" stroke-opacity="0.049999999999999996" stroke-width="5" transform="translate(1, 1)"></path><path fill="none" d="M 3 0 L 13 0 C 16 0 16 0 16 3 L 16 13 C 16 16 16 16 13 16 L 3 16 C 0 16 0 16 0 13 L 0 3 C 0 0 0 0 3 0"  stroke="black" stroke-opacity="0.09999999999999999" stroke-width="3" transform="translate(1, 1)"></path><path fill="none" d="M 3 0 L 13 0 C 16 0 16 0 16 3 L 16 13 C 16 16 16 16 13 16 L 3 16 C 0 16 0 16 0 13 L 0 3 C 0 0 0 0 3 0"  stroke="black" stroke-opacity="0.15" stroke-width="1" transform="translate(1, 1)"></path><path fill="rgb(249, 249, 249)" fill-opacity=" .85" d="M 3 0 L 13 0 C 16 0 16 0 16 3 L 16 13 C 16 16 16 16 13 16 L 3 16 C 0 16 0 16 0 13 L 0 3 C 0 0 0 0 3 0"></path><text x="8"  style="font-size:12px;color:#333333;fill:#333333;" transform="translate(0,20)"></text></g><text x="1030" text-anchor="end"  style="cursor:pointer;color:#909090;font-size:9px;fill:#909090;" y="405">tylervigen.com</text></svg>